# xmcd
#
# Track frame offsets: 
#        150
#        13061
#        24343
#        37487
#        58513
#        67599
#        84289
#        99287
#        118217
#        128770
#        142821
#        156321
#        170894
#
# Disc length: 2311 seconds
#
# Revision: 0
# Processed by: cddbd v1.5.2PL0 Copyright (c) Steve Scherf et al.
# Submitted via: ExactAudioCopy v0.99pb4
#
DISCID=a709050d
DTITLE=Geoff Bartley - Put The Big Stone Down
DYEAR=2010
DGENRE=Folk
TTITLE0=Put The Big Stone Down
TTITLE1=Blue Moon On New Years Eve
TTITLE2=Occam's Razor
TTITLE3=Muscle For The Wing
TTITLE4=Song To A Hawk
TTITLE5=Good-Bye Father
TTITLE6=The Losing Part
TTITLE7=The Cat Song
TTITLE8=Trickle-Down Theory
TTITLE9=Money Is King
TTITLE10=Nobody Cares
TTITLE11=Look Down The Road
TTITLE12=Look Down Outro
EXTD=
EXTT0=
EXTT1=
EXTT2=
EXTT3=
EXTT4=
EXTT5=
EXTT6=
EXTT7=
EXTT8=
EXTT9=
EXTT10=
EXTT11=
EXTT12=
PLAYORDER=
